<?xml version="1.0" standalone="no"?>
<!DOCTYPE svg PUBLIC "-//W3C//DTD SVG 20010904//EN"
 "http://www.w3.org/TR/2001/REC-SVG-20010904/DTD/svg10.dtd">
<svg version="1.0" xmlns="http://www.w3.org/2000/svg"
 width="700.000000pt" height="700.000000pt" viewBox="0 0 700.000000 700.000000"
 preserveAspectRatio="xMidYMid meet">
<metadata>
Created by potrace 1.11, written by Peter Selinger 2001-2013
</metadata>
<g transform="translate(0.000000,700.000000) scale(0.100000,-0.100000)"
fill="#000000" stroke="none">
<path d="M1110 5682 c-220 -34 -378 -214 -378 -427 0 -255 209 -454 464 -439
196 11 358 155 400 359 6 29 6 125 -1 158 -32 161 -156 294 -315 337 -48 13
-130 19 -170 12z"/>
<path d="M2175 5540 l-130 -5 -2 -287 -2 -288 67 -1 c543 -4 4005 1 4010 6 4
3 7 134 7 291 l0 284 -25 0 c-289 4 -3833 4 -3925 0z"/>
<path d="M1075 3925 c-200 -43 -342 -218 -343 -426 -1 -249 211 -447 464 -433
223 13 405 205 405 427 0 34 -2 71 -5 82 -15 70 -31 110 -62 157 -104 157
-279 231 -459 193z"/>
<path d="M2042 3500 l-1 -290 2042 0 2042 0 0 290 0 290 -2041 0 -2042 0 0
-290z"/>
<path d="M1115 2183 c-66 -12 -116 -29 -160 -54 -253 -143 -299 -480 -94 -686
244 -246 662 -116 735 228 6 31 6 126 -1 162 -30 155 -150 287 -305 335 -38
12 -143 21 -175 15z"/>
<path d="M2094 2042 l-52 -3 0 -289 0 -290 131 0 c1236 -3 3941 0 3946 5 3 4
6 135 6 291 0 246 -2 284 -15 285 -68 2 -3977 3 -4016 1z"/>
</g>
</svg>
